<?xml version="1.0" encoding="UTF-8"?>
<svg xmlns="http://www.w3.org/2000/svg" viewBox="0 0 2902.68 2902.68">
  <defs>
    <style>
      .cls-1 {
        stroke: #282f42;
      }

      .cls-1, .cls-2 {
        stroke-miterlimit: 10;
        stroke-width: 13px;
      }

      .cls-1, .cls-3 {
        fill: #282f42;
      }

      .cls-4 {
        fill: #fff;
      }

      .cls-4, .cls-5, .cls-6, .cls-7, .cls-3 {
        stroke-width: 0px;
      }

      .cls-5 {
        fill: #fbb040;
        opacity: .6;
      }

      .cls-6 {
        fill: #231f20;
      }

      .cls-2 {
        fill: none;
        stroke: #231f20;
      }

      .cls-7 {
        fill: #efddc1;
      }
    </style>
  </defs>
  <g id="_круг" data-name="круг">
    <path class="cls-3" d="m0,0v2902.68h2902.68V0H0Zm2257.54,1668.37c-52.12,160.26-150.68,299.56-279.81,402-6.35,5.04-12.77,9.99-19.27,14.85-.03.01-.06.03-.09.06-5.41,4.06-10.87,8.04-16.38,11.95-.03.01-.06.04-.09.06-4.83,3.43-9.7,6.82-14.6,10.16-4.91,3.34-9.85,6.63-14.83,9.86-.03.01-.07.03-.1.06-2.82,1.84-5.66,3.65-8.5,5.45-14.42,9.12-29.14,17.82-44.13,26.09-2.96,1.62-5.93,3.24-8.91,4.83-.03.03-.06.04-.1.06-3.72,1.99-7.45,3.95-11.21,5.89-3.75,1.94-7.52,3.85-11.3,5.73-3.78,1.88-7.58,3.73-11.4,5.56,0,0,0,.01-.01.01-5.72,2.73-11.48,5.41-17.27,8.02,0,0,0,.01-.01.01-106.22,47.92-224.09,74.59-348.19,74.59-375.59,0-694.12-244.3-805.36-582.67,0-.01,0-.02-.01-.03-27.39-83.33-42.21-172.37-42.21-264.88,0-468.1,379.47-847.58,847.58-847.58,124.1,0,241.97,26.67,348.19,74.59.01,0,.01.01.01.01,1.45.65,2.89,1.31,4.34,1.97,2.88,1.32,5.76,2.66,8.63,4.01,1.44.67,2.87,1.35,4.3,2.04.01,0,.01,0,.01,0,1.91.91,3.81,1.83,5.71,2.76.31.15.63.3.94.46.79.38,1.58.77,2.37,1.17.79.38,1.59.78,2.38,1.17,3.78,1.88,7.55,3.79,11.3,5.73,3.76,1.94,7.49,3.9,11.21,5.89.04.02.07.03.1.06,2.98,1.59,5.95,3.21,8.91,4.83,14.99,8.27,29.71,16.97,44.13,26.09,2.84,1.8,5.68,3.61,8.5,5.45.03.03.07.05.1.06,9.96,6.47,19.77,13.14,29.43,20.02.03.02.06.05.09.06,5.51,3.91,10.97,7.89,16.38,11.95.03.03.06.05.09.06,206.68,154.56,340.46,401.26,340.46,679.19,0,91.57-14.52,179.74-41.38,262.34Z"/>
  </g>
  <g id="_ободок" data-name="ободок">
    <path class="cls-5" d="m1451.34,585.65c-453.08,0-820.38,367.3-820.38,820.38,0,100.09,17.93,195.99,50.74,284.67,115.72,312.76,416.65,535.71,769.64,535.71,453.08,0,820.38-367.3,820.38-820.38s-367.3-820.38-820.38-820.38Zm0,1628.48c-348.62,0-645.69-220.76-759.02-530.12-31.75-86.67-49.08-180.31-49.08-277.98,0-446.3,361.8-808.1,808.1-808.1s808.1,361.8,808.1,808.1c0,101.67-18.78,198.97-53.06,288.6-116.18,303.78-410.42,519.5-755.04,519.5Z"/>
    <path class="cls-1" d="m1451.34,585.65c-453.08,0-820.38,367.3-820.38,820.38,0,100.09,17.93,195.99,50.74,284.67,115.72,312.76,416.65,535.71,769.64,535.71,453.08,0,820.38-367.3,820.38-820.38s-367.3-820.38-820.38-820.38Zm0,1628.48c-348.62,0-645.69-220.76-759.02-530.12-31.75-86.67-49.08-180.31-49.08-277.98,0-446.3,361.8-808.1,808.1-808.1s808.1,361.8,808.1,808.1c0,101.67-18.78,198.97-53.06,288.6-116.18,303.78-410.42,519.5-755.04,519.5Z"/>
  </g>
  <g id="_фон" data-name="фон">
    <circle class="cls-7" cx="1462.82" cy="1406.03" r="609.15"/>
  </g>
  <g id="_чайка" data-name="чайка">
    <g>
      <g>
        <path class="cls-6" d="m2039.42,1004.29c24.86-7.14,25.94,10.59,19.07,23.35-8.39,15.6-34.59,46.59-97.38,75.29l-.6-1.32c-57.42-15.32-164.2-7.42-164.2-7.42l-.43-.9c82.73-39.71,184.64-72.09,243.54-89Z"/>
        <path class="cls-4" d="m1960.51,1101.61l.6,1.32c-8.34,3.82-17.33,7.6-27.01,11.29-169.45,64.62-282.98,271.32-287.84,280.27-18.43-1.7-40.32-1.49-66.77,1.77-10.49,1.29-20.9-2.94-27.53-11.16-8.1-10.03-19.97-24.93-33.28-42.21,27.98-65.63,117.62-150.41,207.53-210.72,20.13-13.5,43.98-26.54,69.67-38.88l.43.9s106.78-7.9,164.2,7.42Z"/>
        <path class="cls-4" d="m1646.26,1394.49c59.25,5.45,82.76,30.59,107.06,37.34,33.84,9.41,46.96,45.49,33.15,44.46-10.47-.79-33.31-10.15-51.34-9.65-10.92.31-21.66,2.9-31.51,7.66-34.08,16.45-128.57,56.13-216.03,38.42-87.66-17.76-145.38-14.16-200.28,7.25-10.1,3.94-25.26,4.93-35.23.69-17.11-7.28-42.82-31.77-15.19-35.91,21.56-3.24,147.11-26.94,140.2-57.67-13.38-59.53-128.81-241.04-283.42-334.79-48.31-29.3-90.99-61.24-125.28-91.03,3.96-16.95,210.85,8.61,210.85,8.61,111.96,43.13,191,96.42,246.19,188.86,17.41,29.16,57.03,97.12,93.25,144.16,13.31,17.28,25.18,32.18,33.28,42.21,6.63,8.22,17.04,12.45,27.53,11.16,26.45-3.26,48.34-3.47,66.77-1.77Zm43.09,33.58c0-.28-.23-.52-.52-.52s-.52.24-.52.52.23.52.52.52.52-.23.52-.52Z"/>
        <path class="cls-6" d="m1140.28,995.68c13.41,4.63,26.39,9.34,38.96,14.19,0,0-206.89-25.56-210.85-8.61-61.29-53.26-95.76-99.64-87.62-111.76,5.27-7.85,126.65,60.34,259.51,106.18Z"/>
      </g>
      <g>
        <circle class="cls-2" cx="1688.83" cy="1428.07" r=".52"/>
        <path class="cls-2" d="m1646.26,1394.49c-18.43-1.7-40.32-1.49-66.77,1.77-10.49,1.29-20.9-2.94-27.53-11.16-8.1-10.03-19.97-24.93-33.28-42.21-36.22-47.04-75.84-115-93.25-144.16-55.19-92.44-134.23-145.73-246.19-188.86-12.57-4.85-25.55-9.56-38.96-14.19-132.86-45.84-254.24-114.03-259.51-106.18-8.14,12.12,26.33,58.5,87.62,111.76,34.29,29.79,76.97,61.73,125.28,91.03,154.61,93.75,270.04,275.26,283.42,334.79,6.91,30.73-118.64,54.43-140.2,57.67-27.63,4.14-1.92,28.63,15.19,35.91,9.97,4.24,25.13,3.25,35.23-.69,54.9-21.41,112.62-25.01,200.28-7.25,87.46,17.71,181.95-21.97,216.03-38.42,9.85-4.76,20.59-7.35,31.51-7.66,18.03-.5,40.87,8.86,51.34,9.65,13.81,1.03.69-35.05-33.15-44.46-24.3-6.75-47.81-31.89-107.06-37.34Z"/>
        <path class="cls-2" d="m1646.1,1394.79s.05-.1.16-.3c4.86-8.95,118.39-215.65,287.84-280.27,9.68-3.69,18.67-7.47,27.01-11.29,62.79-28.7,88.99-59.69,97.38-75.29,6.87-12.76,5.79-30.49-19.07-23.35-58.9,16.91-160.81,49.29-243.54,89-25.69,12.34-49.54,25.38-69.67,38.88-89.91,60.31-179.55,145.09-207.53,210.72"/>
        <path class="cls-2" d="m1796.31,1094.19s106.78-7.9,164.2,7.42"/>
        <path class="cls-2" d="m1179.24,1009.87s-206.89-25.56-210.85-8.61"/>
      </g>
    </g>
    <path class="cls-6" d="m1272.54,1482.13c16.51,6.09,33.48,13.24,44.93,27.19.86,1.04,2.65.89,3.54,0,1.03-1.03.86-2.49,0-3.54-11.99-14.6-29.87-22.11-47.14-28.48-1.27-.47-2.74.52-3.08,1.75-.38,1.4.47,2.61,1.75,3.08h0Z"/>
    <path class="cls-6" d="m1256.14,1486.05c-4.16.33-8.33.23-12.47-.3l2.66.36c-2.23-.3-4.43-.72-6.61-1.25v19.29l.44-.06-2.66.36c.6-.04,1.17-.02,1.76.05l-2.66-.36c1.27.2,2.49.59,3.72.96,1.99.59,3.99.86,6.05,1.12,2.66.33,5.33.28,8,.19,3.33-.12,6.65-.37,9.94-.97s6.24-2.04,9.26-3.32l-2.39,1.01c1.8-.76,3.61-1.47,5.55-1.8l-2.66.36c.95-.12,1.85-.14,2.8-.02l-2.66-.36c.69.13,1.34.32,1.99.57l-2.39-1.01c2.21.98,4.22,2.44,6.26,3.73s4.16,2.64,6.24,3.97c4.29,2.74,8.57,5.51,12.83,8.3l5.05-18.63c-8.42.42-16.85.55-25.27.37-8.08-.18-16.26-.43-24.28-1.46l2.66.36c-3.19-.43-6.33-1.11-9.31-2.35l2.39,1.01c-1.28-.56-2.49-1.21-3.65-1.97-2.09-1.38-5.34-1.66-7.71-1.01s-4.83,2.43-5.98,4.6c-2.65,5.01-1.08,10.6,3.59,13.68,7.71,5.1,17.24,5.81,26.19,6.42s17.5.87,26.26.8c5.04-.04,10.08-.19,15.11-.44,4.25-.21,8.64-2.94,9.64-7.34s-.74-8.77-4.6-11.29c-6.46-4.22-12.96-8.4-19.48-12.53-1.5-.95-2.98-1.95-4.54-2.82-2.82-1.57-5.55-2.38-8.75-2.64-4.92-.4-9.39,1.71-13.78,3.57l2.39-1.01c-2.36,1-4.7,1.79-7.24,2.16l2.66-.36c-4.58.6-9.53.83-14.12.24l2.66.36c-1.77-.26-3.43-.8-5.14-1.28-1.51-.42-3.07-.65-4.63-.79-1.67-.16-3.17.14-4.87.37l-2.39,1.01c-1.17.63-2.1,1.49-2.81,2.58-1.3,1.69-2.25,3.87-2.15,6.06.19,4.32,2.95,8.57,7.34,9.64,7.07,1.73,14.48,2.48,21.74,1.9,2.69-.21,5.11-.97,7.07-2.93,1.73-1.73,3.04-4.58,2.93-7.07s-.97-5.27-2.93-7.07-4.45-3.14-7.07-2.93h0Z"/>
  </g>
</svg>